<svg width="240" height="240" viewBox="0 0 240 240" fill="none" xmlns="http://www.w3.org/2000/svg">
<path d="M156 120C156 159.765 123.765 192 84 192H12V120C12 80.2355 44.2355 48 84 48C123.765 48 156 80.2355 156 120Z" fill="#9B93FF"/>
<path d="M120 138C120 167.823 144.177 192 174 192H228V138C228 108.177 203.823 84 174 84C144.177 84 120 108.177 120 138Z" fill="#9B93FF" fill-opacity="0.4"/>
<path d="M156 120C156 109.255 153.646 99.0602 149.427 89.9023C131.957 98.8455 120 117.026 120 138C120 151.318 124.822 163.511 132.814 172.926C147.071 159.771 156 140.928 156 120Z" fill="#F3F2FF"/>
</svg>
